<svg width="24" height="24" viewBox="0 0 24 24" class="gear_normal">
  <path fill="currentColor" fill-rule="nonzero" d="M16.523 6.38l1.193-.598a1 1 0 0 1 1.314.394l1.529 2.648a1 1 0 0 1-.317 1.335l-1.204.793a7.263 7.263 0 0 1-.026 2.079l1.23.81a1 1 0 0 1 .317 1.335l-1.529 2.648a1 1 0 0 1-1.314.394l-1.345-.674a7.194 7.194 0 0 1-1.757 1.027l-.087 1.488a1 1 0 0 1-.998.941H10.47a1 1 0 0 1-.998-.941L9.39 18.65a7.188 7.188 0 0 1-1.883-1.045l-1.223.613a1 1 0 0 1-1.314-.394l-1.529-2.648a1 1 0 0 1 .317-1.335l1.05-.692a7.242 7.242 0 0 1-.03-2.318l-1.02-.672a1 1 0 0 1-.317-1.335L4.97 6.176a1 1 0 0 1 1.314-.394l1.068.536a7.191 7.191 0 0 1 2.05-1.173l.071-1.204A1 1 0 0 1 10.471 3h3.058a1 1 0 0 1 .998.941l.075 1.283a7.197 7.197 0 0 1 1.921 1.156zM12 15a3 3 0 1 0 0-6 3 3 0 0 0 0 6z"></path>
</svg>