<svg width="24" height="24" viewBox="0 0 24 24">
  <g fill="currentColor" fill-rule="evenodd">
    <path fill-rule="nonzero" d="M6 4.5h12A1.5 1.5 0 0 1 19.5 6v2.5h-15V6A1.5 1.5 0 0 1 6 4.5z" opacity=".1"></path>
    <path fill-rule="nonzero" d="M6 4h12a2 2 0 0 1 2 2v12a2 2 0 0 1-2 2H6a2 2 0 0 1-2-2V6a2 2 0 0 1 2-2zm0 1a1 1 0 0 0-1 1v12a1 1 0 0 0 1 1h12a1 1 0 0 0 1-1V6a1 1 0 0 0-1-1H6zm10 12a1 1 0 1 1 0-2 1 1 0 0 1 0 2zm-4 0a1 1 0 1 1 0-2 1 1 0 0 1 0 2zm-4 0a1 1 0 1 1 0-2 1 1 0 0 1 0 2zm8-4a1 1 0 1 1 0-2 1 1 0 0 1 0 2zm-4 0a1 1 0 1 1 0-2 1 1 0 0 1 0 2zm-4 0a1 1 0 1 1 0-2 1 1 0 0 1 0 2zM7 8h10a.5.5 0 1 1 0 1H7a.5.5 0 0 1 0-1z"></path>
  </g>
</svg>